<svg xmlns="http://www.w3.org/2000/svg" viewBox="0 0 300 200">
  <defs>
    <marker id="arrow" markerWidth="8" markerHeight="8" refX="5" refY="3" orient="auto" markerUnits="strokeWidth">
      <path d="M0,0 L0,6 L7,3 z" fill="black" />
    </marker>
  </defs>

  <!-- Axes -->
  <line x1="40" y1="180" x2="280" y2="180" stroke="black" stroke-width="1.5" marker-end="url(#arrow)" />
  <line x1="40" y1="180" x2="40" y2="15" stroke="black" stroke-width="1.5" marker-end="url(#arrow)" />
  
  <!-- Axis Labels -->
  <text x="15" y="25" font-family="Arial" font-size="12" font-weight="bold">Cost</text>
  <text x="285" y="185" font-family="Arial" font-size="12" font-weight="bold">q</text>

  <!-- AFC (Orange) -->
  <path d="M 44.5,110.4 L 48.8,118.4 L 53.1,125.0 L 57.4,130.5 L 61.8,135.2 L 66.1,139.2 L 70.4,142.7 L 74.7,145.8 L 79.0,148.6 L 83.3,151.0 L 87.7,153.2 L 92.0,155.1 L 96.3,156.9 L 100.6,158.6 L 104.9,160.0 L 109.2,161.4 L 113.6,162.7 L 117.9,163.8 L 122.2,164.9 L 126.5,165.9 L 130.8,166.8 L 135.1,167.7 L 139.5,168.5 L 143.8,169.3 L 148.1,170.0 L 152.4,170.7 L 156.7,171.3 L 161.0,171.9 L 165.4,172.5 L 169.7,173.1 L 174.0,173.6 L 178.3,174.1 L 182.6,174.5 L 186.9,175.0 L 191.3,175.4 L 195.6,175.8 L 199.9,176.2 L 204.2,176.5 L 208.5,176.9 L 212.8,177.2 L 217.2,177.6 L 221.5,177.9 L 225.8,178.2 L 230.1,178.5 L 234.4,178.7 L 238.7,179.0 L 243.1,179.3 L 247.4,179.5 L 251.7,179.8 L 256.0,180.0" stroke="orange" stroke-width="2" fill="none" />
  <text x="100" y="150" font-family="Arial" font-size="11" fill="orange" font-weight="bold">AFC</text>

  <!-- AVC (Blue) -->
  <path d="M 44.5,90.6 L 48.8,92.9 L 53.1,95.1 L 57.4,97.2 L 61.8,99.3 L 66.1,101.2 L 70.4,103.0 L 74.7,104.8 L 79.0,106.5 L 83.3,108.1 L 87.7,109.6 L 92.0,111.0 L 96.3,112.4 L 100.6,113.6 L 104.9,114.8 L 109.2,115.9 L 113.6,116.9 L 117.9,117.8 L 122.2,118.6 L 126.5,119.4 L 130.8,120.0 L 135.1,120.6 L 139.5,121.1 L 143.8,121.4 L 148.1,121.8 L 152.4,122.0 L 156.7,122.1 L 161.0,122.2 L 165.4,122.1 L 169.7,122.0 L 174.0,121.8 L 178.3,121.5 L 182.6,121.1 L 186.9,120.7 L 191.3,120.1 L 195.6,119.5 L 199.9,118.8 L 204.2,118.0 L 208.5,117.1 L 212.8,116.1 L 217.2,115.0 L 221.5,113.9 L 225.8,112.7 L 230.1,111.3 L 234.4,109.9 L 238.7,108.4 L 243.1,106.8 L 247.4,105.2 L 251.7,103.4 L 256.0,101.6" stroke="blue" stroke-width="2" fill="none" />
  <text x="260" y="102" font-family="Arial" font-size="11" fill="blue" font-weight="bold">AVC</text>

  <!-- AC (Green) -->
  <path d="M 44.5,7.7 L 48.8,18.0 L 53.1,26.7 L 57.4,34.4 L 61.8,41.1 L 66.1,47.1 L 70.4,52.5 L 74.7,57.3 L 79.0,61.7 L 83.3,65.8 L 87.7,69.5 L 92.0,72.9 L 96.3,76.0 L 100.6,78.9 L 104.9,81.5 L 109.2,84.0 L 113.6,86.2 L 117.9,88.3 L 122.2,90.2 L 126.5,91.9 L 130.8,93.5 L 135.1,95.0 L 139.5,96.3 L 143.8,97.4 L 148.1,98.4 L 152.4,99.3 L 156.7,100.1 L 161.0,100.8 L 165.4,101.3 L 169.7,101.7 L 174.0,102.1 L 178.3,102.2 L 182.6,102.3 L 186.9,102.3 L 191.3,102.2 L 195.6,102.0 L 199.9,101.6 L 204.2,101.2 L 208.5,100.7 L 212.8,100.0 L 217.2,99.3 L 221.5,98.4 L 225.8,97.5 L 230.1,96.5 L 234.4,95.3 L 238.7,94.1 L 243.1,92.8 L 247.4,91.4 L 251.7,89.9 L 256.0,88.3" stroke="green" stroke-width="2" fill="none" />
  <text x="260" y="84" font-family="Arial" font-size="11" fill="green" font-weight="bold">AC</text>

  <!-- MC (Red) -->
  <path d="M 53.5,119.9 L 57.4,122.9 L 61.4,125.6 L 65.3,128.1 L 69.3,130.3 L 73.2,132.4 L 77.2,134.2 L 81.1,135.9 L 85.1,137.3 L 89.0,138.5 L 93.0,139.5 L 96.9,140.2 L 100.9,140.8 L 104.8,141.1 L 108.8,141.2 L 112.7,141.1 L 116.7,140.8 L 120.6,140.3 L 124.6,139.5 L 128.5,138.6 L 132.5,137.4 L 136.4,136.0 L 140.4,134.4 L 144.3,132.6 L 148.3,130.6 L 152.2,128.3 L 156.2,125.8 L 160.1,123.2 L 164.1,120.3 L 168.0,117.1 L 172.0,113.8 L 175.9,110.3 L 179.9,106.5 L 183.8,102.5 L 187.8,98.3 L 191.7,93.9 L 195.7,89.3 L 199.6,84.5 L 203.6,79.4 L 207.5,74.1 L 211.5,68.7 L 215.4,63.0 L 219.4,57.0 L 223.3,50.9 L 227.3,44.6 L 231.2,38.0 L 235.2,31.2 L 239.1,24.2 L 243.1,17.0 L 247.0,9.6" stroke="red" stroke-width="2" fill="none" />
  <text x="252" y="15" font-family="Arial" font-size="11" fill="red" font-weight="bold">MC</text>
</svg>