<svg xmlns="http://www.w3.org/2000/svg" viewBox="0 0 500 500" width="100%" height="100%">
  <!-- Top Graph -->
  <!-- Axes -->
  <line x1="50" y1="180" x2="50" y2="20" stroke="black" stroke-width="1.5" marker-end="url(#arrow)" />
  <line x1="50" y1="180" x2="300" y2="180" stroke="black" stroke-width="1.5" marker-end="url(#arrow)" />
  <text x="45" y="15" font-family="Arial" font-size="14">Y</text>
  <text x="310" y="185" font-family="Arial" font-size="14">X</text>
  
  <!-- Budget lines -->
  <line x1="50" y1="80" x2="150" y2="180" stroke="blue" stroke-width="1.5" />
  <line x1="50" y1="80" x2="200" y2="180" stroke="blue" stroke-width="1.5" />
  
  <!-- IC curves (red) -->
  <path d="M 65 55 Q 75 145 165 155" fill="none" stroke="red" stroke-width="1.5" />
  <path d="M 105 85 Q 115 155 225 165" fill="none" stroke="red" stroke-width="1.5" />
  <text x="215" y="160" font-family="Arial" font-size="12">IC</text>

  <!-- Points and dashed lines -->
  <circle cx="95" cy="125" r="3" fill="red" />
  <text x="85" y="120" fill="red" font-family="Arial" font-size="12">e&#x2081;</text>
  <line x1="50" y1="125" x2="95" y2="125" stroke="black" stroke-dasharray="4" stroke-width="0.5" />
  <line x1="95" y1="125" x2="95" y2="180" stroke="black" stroke-dasharray="4" stroke-width="0.5" />
  <text x="30" y="129" fill="red" font-family="Arial" font-size="12">Y&#x2081;</text>
  <text x="90" y="195" fill="red" font-family="Arial" font-size="12">X&#x2081;</text>
  
  <circle cx="140" cy="140" r="3" fill="red" />
  <text x="145" y="135" fill="red" font-family="Arial" font-size="12">e&#x2082;</text>
  <line x1="50" y1="140" x2="140" y2="140" stroke="black" stroke-dasharray="4" stroke-width="0.5" />
  <line x1="140" y1="140" x2="140" y2="180" stroke="black" stroke-dasharray="4" stroke-width="0.5" />
  <text x="30" y="144" fill="red" font-family="Arial" font-size="12">Y&#x2082;</text>
  <text x="135" y="195" fill="red" font-family="Arial" font-size="12">X&#x2082;</text>

  <!-- Bottom Graph -->
  <!-- Axes -->
  <line x1="50" y1="380" x2="50" y2="220" stroke="black" stroke-width="1.5" marker-end="url(#arrow)" />
  <line x1="50" y1="380" x2="300" y2="380" stroke="black" stroke-width="1.5" marker-end="url(#arrow)" />
  <text x="35" y="220" font-family="Arial" font-size="14">P</text>
  <text x="310" y="385" font-family="Arial" font-size="14">X</text>
  
  <!-- Points and dashed lines -->
  <line x1="50" y1="270" x2="95" y2="270" stroke="black" stroke-dasharray="4" stroke-width="0.5" />
  <line x1="95" y1="180" x2="95" y2="380" stroke="black" stroke-dasharray="4" stroke-width="0.5" />
  <text x="25" y="275" font-family="Arial" font-size="12">P&#x2081;</text>
  <text x="90" y="395" font-family="Arial" font-size="12">X&#x2081;</text>
  <circle cx="95" cy="270" r="3" fill="blue" />
  <text x="83" y="265" fill="blue" font-family="Arial" font-size="12">e&#x2081;</text>
  
  <line x1="50" y1="330" x2="140" y2="330" stroke="black" stroke-dasharray="4" stroke-width="0.5" />
  <line x1="140" y1="180" x2="140" y2="380" stroke="black" stroke-dasharray="4" stroke-width="0.5" />
  <text x="25" y="335" font-family="Arial" font-size="12">P&#x2082;</text>
  <text x="135" y="395" font-family="Arial" font-size="12">X&#x2082;</text>
  <circle cx="140" cy="330" r="3" fill="blue" />
  <text x="146" y="325" fill="blue" font-family="Arial" font-size="12">e&#x2082;</text>
  
  <!-- Demand line -->
  <line x1="80" y1="250" x2="160" y2="357" stroke="red" stroke-width="1.5" />

  <defs>
    <marker id="arrow" markerWidth="10" markerHeight="10" refX="9" refY="3" orient="auto">
      <path d="M0,0 L0,6 L9,3 z" fill="black" />
    </marker>
  </defs>
</svg>
