<svg xmlns="http://www.w3.org/2000/svg" viewBox="0 0 500 700" width="100%" height="100%">
  <!-- Top Graph: Indifference Curves -->
  <line x1="50" y1="300" x2="50" y2="20" stroke="#f1f5f9" stroke-width="1.5" marker-end="url(#arrow)" />
  <line x1="50" y1="300" x2="450" y2="300" stroke="#f1f5f9" stroke-width="1.5" marker-end="url(#arrow)" />
  <text fill="#f1f5f9" x="30" y="30" font-family="Arial" font-size="16">Y</text>
  <text fill="#f1f5f9" x="460" y="315" font-family="Arial" font-size="16">X</text>
  
  <line x1="50" y1="100" x2="200" y2="300" stroke="#f87171" stroke-width="1.5" />
  <line x1="50" y1="100" x2="350" y2="300" stroke="#f87171" stroke-width="1.5" />
  <line x1="50" y1="160" x2="260" y2="300" stroke="#f1f5f9" stroke-dasharray="5,5" stroke-width="1.5" />
  
  <path d="M 70 120 C 80 140 95 160 110 180 C 125 200 145 223 170 240 C 200 260 230 265 270 270" fill="transparent" stroke="#60a5fa" stroke-width="1.5" />
  <path d="M 100 110 C 130 140 180 187 230 220 C 260 240 310 246 380 250" fill="transparent" stroke="#60a5fa" stroke-width="1.5" />
  
  <circle cx="110" cy="180" r="4" fill="#f1f5f9" />
  <text fill="#f1f5f9" x="100" y="175" font-family="Arial" font-size="14" text-anchor="end">e1</text>
  <line x1="110" y1="180" x2="110" y2="600" stroke="#f1f5f9" stroke-dasharray="3,3" />
  
  <circle cx="170" cy="240" r="4" fill="#f1f5f9" />
  <text fill="#f1f5f9" x="180" y="235" font-family="Arial" font-size="14" text-anchor="start">e3</text>
  <line x1="170" y1="240" x2="170" y2="600" stroke="#f1f5f9" stroke-dasharray="3,3" />
  
  <circle cx="230" cy="220" r="4" fill="#f1f5f9" />
  <text fill="#f1f5f9" x="240" y="215" font-family="Arial" font-size="14" text-anchor="start">e2</text>
  <line x1="230" y1="220" x2="230" y2="600" stroke="#f1f5f9" stroke-dasharray="3,3" />
  
  <text fill="#f1f5f9" x="110" y="320" font-family="Arial" font-size="14" text-anchor="middle">x1</text>
  <text fill="#f1f5f9" x="170" y="320" font-family="Arial" font-size="14" text-anchor="middle">x3</text>
  <text fill="#f1f5f9" x="230" y="320" font-family="Arial" font-size="14" text-anchor="middle">x2</text>

  <!-- Bottom Graph: Demand Curves -->
  <line x1="50" y1="600" x2="50" y2="350" stroke="#f1f5f9" stroke-width="1.5" marker-end="url(#arrow)" />
  <line x1="50" y1="600" x2="450" y2="600" stroke="#f1f5f9" stroke-width="1.5" marker-end="url(#arrow)" />
  <text fill="#f1f5f9" x="30" y="360" font-family="Arial" font-size="16">P</text>
  <text fill="#f1f5f9" x="460" y="615" font-family="Arial" font-size="16">X</text>
  
  <line x1="50" y1="420" x2="110" y2="420" stroke="#f1f5f9" stroke-dasharray="3,3" />
  <text fill="#f1f5f9" x="42" y="425" font-family="Arial" font-size="14" text-anchor="end">P1</text>
  <circle cx="110" cy="420" r="4" fill="#f1f5f9" />
  
  <line x1="50" y1="520" x2="230" y2="520" stroke="#f1f5f9" stroke-dasharray="3,3" />
  <text fill="#f1f5f9" x="42" y="525" font-family="Arial" font-size="14" text-anchor="end">P2</text>
  <circle cx="230" cy="520" r="4" fill="#f1f5f9" />
  <circle cx="170" cy="520" r="4" fill="#f1f5f9" />
  
  <line x1="80" y1="395" x2="260" y2="545" stroke="#f87171" stroke-width="2" />
  <text x="270" y="545" font-family="Arial" font-size="14" fill="#f87171">ND</text>
  
  <line x1="92" y1="390" x2="194" y2="560" stroke="#60a5fa" stroke-width="2" />
  <text x="204" y="560" font-family="Arial" font-size="14" fill="#60a5fa">CD</text>
  
  <text fill="#f1f5f9" x="110" y="620" font-family="Arial" font-size="14" text-anchor="middle">x1</text>
  <text fill="#f1f5f9" x="170" y="620" font-family="Arial" font-size="14" text-anchor="middle">x3</text>
  <text fill="#f1f5f9" x="230" y="620" font-family="Arial" font-size="14" text-anchor="middle">x2</text>

  <!-- Arrow Def -->
  <defs>
    <marker id="arrow" markerWidth="10" markerHeight="10" refX="9" refY="3" orient="auto" markerUnits="strokeWidth">
      <path d="M0,0 L0,6 L9,3 z" fill="#f1f5f9" />
    </marker>
  </defs>
</svg>
