<svg width="400" height="300" xmlns="http://www.w3.org/2000/svg">
  <line x1="50" y1="250" x2="350" y2="250" stroke="#f1f5f9" stroke-width="2" marker-end="url(#arrow)"/>
  <line x1="50" y1="250" x2="50" y2="50" stroke="#f1f5f9" stroke-width="2" marker-end="url(#arrow)"/>
  <text fill="#f1f5f9" x="360" y="255" font-family="Tahoma, Arial" font-size="14">x</text>
  <text fill="#f1f5f9" x="35" y="45" font-family="Tahoma, Arial" font-size="14">y</text>
  <path d="M 70 80 Q 100 220 250 230" fill="none" stroke="#60a5fa" stroke-width="2" />
  <text x="260" y="235" font-family="Tahoma, Arial" font-size="14" fill="#60a5fa">U</text>
  <path d="M 90 60 Q 130 180 300 190" fill="none" stroke="#60a5fa" stroke-width="2" />
  <text x="310" y="195" font-family="Tahoma, Arial" font-size="14" fill="#60a5fa">U'</text>
  <circle cx="100" cy="154" r="3" fill="#f1f5f9" />
  <circle cx="140" cy="195" r="3" fill="#f1f5f9" />
  <line x1="50" y1="154" x2="100" y2="154" stroke="#f1f5f9" stroke-dasharray="5,5" />
  <line x1="100" y1="250" x2="100" y2="154" stroke="#f1f5f9" stroke-dasharray="5,5" />
  <text fill="#f1f5f9" x="30" y="157" font-family="Tahoma, Arial" font-size="12">y<tspan dy="3" font-size="10">1</tspan></text>
  <text fill="#f1f5f9" x="95" y="268" font-family="Tahoma, Arial" font-size="12">x<tspan dy="3" font-size="10">1</tspan></text>
  <line x1="50" y1="195" x2="140" y2="195" stroke="#f1f5f9" stroke-dasharray="5,5" />
  <line x1="140" y1="250" x2="140" y2="195" stroke="#f1f5f9" stroke-dasharray="5,5" />
  <text fill="#f1f5f9" x="30" y="198" font-family="Tahoma, Arial" font-size="12">y<tspan dy="3" font-size="10">2</tspan></text>
  <text fill="#f1f5f9" x="135" y="268" font-family="Tahoma, Arial" font-size="12">x<tspan dy="3" font-size="10">2</tspan></text>
  <defs>
    <marker id="arrow" viewBox="0 0 10 10" refX="10" refY="5" markerWidth="6" markerHeight="6" orient="auto">
      <path d="M 0 0 L 10 5 L 0 10 z" fill="#f1f5f9" />
    </marker>
  </defs>
</svg>
