<svg xmlns="http://www.w3.org/2000/svg" viewBox="0 0 300 200">
  <defs>
    <marker id="arrow" markerWidth="8" markerHeight="8" refX="5" refY="3" orient="auto" markerUnits="strokeWidth">
      <path d="M0,0 L0,6 L7,3 z" fill="black" />
    </marker>
  </defs>

  <!-- Axes -->
  <line x1="40" y1="180" x2="280" y2="180" stroke="black" stroke-width="1.5" marker-end="url(#arrow)" />
  <line x1="40" y1="180" x2="40" y2="15" stroke="black" stroke-width="1.5" marker-end="url(#arrow)" />
  
  <!-- Axis Labels -->
  <text x="15" y="25" font-family="Arial" font-size="12" font-weight="bold">Cost</text>
  <text x="285" y="185" font-family="Arial" font-size="12" font-weight="bold">q</text>
  
  <!-- TFC (Red horizontal line) -->
  <line x1="40" y1="130" x2="260" y2="130" stroke="red" stroke-width="2" />
  <text x="265" y="134" font-family="Arial" font-size="11" fill="red" font-weight="bold">TFC</text>
  
  <!-- TVC (Blue S-curve) -->
  <path d="M 40.0,180.0 L 44.5,175.1 L 49.0,170.4 L 53.5,166.0 L 58.0,162.0 L 62.4,158.1 L 66.9,154.6 L 71.4,151.3 L 75.9,148.2 L 80.4,145.3 L 84.9,142.6 L 89.4,140.1 L 93.9,137.8 L 98.4,135.7 L 102.9,133.7 L 107.3,131.9 L 111.8,130.2 L 116.3,128.6 L 120.8,127.1 L 125.3,125.8 L 129.8,124.5 L 134.3,123.3 L 138.8,122.1 L 143.3,121.0 L 147.8,120.0 L 152.2,118.9 L 156.7,117.9 L 161.2,116.9 L 165.7,115.9 L 170.2,114.8 L 174.7,113.7 L 179.2,112.6 L 183.7,111.4 L 188.2,110.1 L 192.7,108.8 L 197.1,107.3 L 201.6,105.8 L 206.1,104.1 L 210.6,102.3 L 215.1,100.4 L 219.6,98.3 L 224.1,96.1 L 228.6,93.6 L 233.1,91.0 L 237.6,88.2 L 242.0,85.1 L 246.5,81.9 L 251.0,78.4 L 255.5,74.6 L 260.0,70.6" stroke="blue" stroke-width="2.5" fill="none" />
  <text x="265" y="74" font-family="Arial" font-size="11" fill="blue" font-weight="bold">TVC</text>
  
  <!-- TC (Green S-curve) -->
  <path d="M 40.0,130.0 L 44.5,125.1 L 49.0,120.4 L 53.5,116.0 L 58.0,112.0 L 62.4,108.1 L 66.9,104.6 L 71.4,101.3 L 75.9,98.2 L 80.4,95.3 L 84.9,92.6 L 89.4,90.1 L 93.9,87.8 L 98.4,85.7 L 102.9,83.7 L 107.3,81.9 L 111.8,80.2 L 116.3,78.6 L 120.8,77.1 L 125.3,75.8 L 129.8,74.5 L 134.3,73.3 L 138.8,72.1 L 143.3,71.0 L 147.8,70.0 L 152.2,68.9 L 156.7,67.9 L 161.2,66.9 L 165.7,65.9 L 170.2,64.8 L 174.7,63.7 L 179.2,62.6 L 183.7,61.4 L 188.2,60.1 L 192.7,58.8 L 197.1,57.3 L 201.6,55.8 L 206.1,54.1 L 210.6,52.3 L 215.1,50.4 L 219.6,48.3 L 224.1,46.1 L 228.6,43.6 L 233.1,41.0 L 237.6,38.2 L 242.0,35.1 L 246.5,31.9 L 251.0,28.4 L 255.5,24.6 L 260.0,20.6" stroke="green" stroke-width="2.5" fill="none" />
  <text x="265" y="24" font-family="Arial" font-size="11" fill="green" font-weight="bold">TC</text>
</svg>