<svg width="600" height="300" xmlns="http://www.w3.org/2000/svg">
  <defs>
    <marker id="arrow-red-right" viewBox="0 0 10 10" refX="8" refY="5" markerWidth="6" markerHeight="6" orient="auto-start-reverse">
      <path d="M 0 0 L 10 5 L 0 10 z" fill="red" />
    </marker>
    <marker id="arrow-red-left" viewBox="0 0 10 10" refX="2" refY="5" markerWidth="6" markerHeight="6" orient="auto">
      <path d="M 10 0 L 0 5 L 10 10 z" fill="red" />
    </marker>
    <marker id="arrow-blue-right" viewBox="0 0 10 10" refX="8" refY="5" markerWidth="6" markerHeight="6" orient="auto-start-reverse">
      <path d="M 0 0 L 10 5 L 0 10 z" fill="blue" />
    </marker>
    <marker id="arrow-blue-left" viewBox="0 0 10 10" refX="2" refY="5" markerWidth="6" markerHeight="6" orient="auto">
      <path d="M 10 0 L 0 5 L 10 10 z" fill="blue" />
    </marker>
  </defs>

  <rect x="120" y="130" width="80" height="40" rx="20" fill="none" stroke="black" stroke-width="2" />
  <text x="160" y="155" font-family="Tahoma, Arial" font-size="14" text-anchor="middle">بنگاه</text>

  <rect x="400" y="130" width="80" height="40" rx="20" fill="none" stroke="black" stroke-width="2" />
  <text x="440" y="155" font-family="Tahoma, Arial" font-size="14" text-anchor="middle">خانوار</text>

  <path d="M 160 130 C 160 50, 440 50, 440 130" fill="none" stroke="red" stroke-width="2" marker-end="url(#arrow-red-right)" />
  <text x="300" y="50" font-family="Tahoma, Arial" font-size="12" text-anchor="middle" fill="red">کالا</text>
  <text x="80" y="70" font-family="Tahoma, Arial" font-size="12" text-anchor="middle" fill="red">بازار کالا و خدمات</text>

  <path d="M 420 130 C 420 90, 180 90, 180 130" fill="none" stroke="blue" stroke-width="2" marker-end="url(#arrow-blue-left)" />
  <text x="300" y="118" font-family="Tahoma, Arial" font-size="12" text-anchor="middle" fill="blue">قیمت کالا</text>

  <path d="M 180 170 C 180 210, 420 210, 420 170" fill="none" stroke="blue" stroke-width="2" marker-end="url(#arrow-blue-right)" />
  <text x="300" y="185" font-family="Tahoma, Arial" font-size="12" text-anchor="middle" fill="blue">قیمت عامل تولید (دستمزد، بهره و ...)</text>

  <path d="M 440 170 C 440 250, 160 250, 160 170" fill="none" stroke="red" stroke-width="2" marker-end="url(#arrow-red-left)" />
  <text x="300" y="255" font-family="Tahoma, Arial" font-size="12" text-anchor="middle" fill="red">عوامل تولید (کار، سرمایه، ...)</text>
  <text x="520" y="240" font-family="Tahoma, Arial" font-size="12" text-anchor="middle" fill="red">بازار عوامل تولید</text>
</svg>
